<svg xmlns="http://www.w3.org/2000/svg" xmlns:xlink="http://www.w3.org/1999/xlink" width="500" zoomAndPan="magnify" viewBox="0 0 375 374.999991" height="500" preserveAspectRatio="xMidYMid meet" version="1.0"><defs><g/><clipPath id="bbd97c05b5"><path d="M 86 174 L 331.667969 174 L 331.667969 330.296875 L 86 330.296875 Z M 86 174 " clip-rule="nonzero"/></clipPath><clipPath id="7d1778bb71"><path d="M 62.511719 72.644531 L 329 72.644531 L 329 259 L 62.511719 259 Z M 62.511719 72.644531 " clip-rule="nonzero"/></clipPath></defs><g clip-path="url(#bbd97c05b5)"><path fill="#4ecaab" d="M 329.527344 180.089844 C 330.707031 187.039062 331.320312 194.175781 331.320312 201.445312 C 331.320312 272.378906 273.46875 330.230469 202.535156 330.230469 C 151.25 330.230469 106.828125 299.96875 86.140625 256.394531 C 121.5625 244.851562 151.53125 223.851562 180.824219 197.039062 C 193.421875 206.679688 208.753906 217.773438 221.859375 226.679688 C 201.484375 248.28125 138.90625 284.367188 128.214844 287.964844 C 178.652344 283.585938 240.257812 257.085938 317.066406 174.445312 C 321.222656 176.324219 325.371094 178.207031 329.527344 180.089844 " fill-opacity="1" fill-rule="evenodd"/></g><g clip-path="url(#7d1778bb71)"><path fill="#000000" d="M 202.535156 72.660156 C 244.046875 72.660156 281.042969 92.46875 304.628906 123.113281 L 328.148438 115.796875 L 328.109375 116.195312 C 309.785156 130.257812 290.027344 141.210938 270.242188 153.230469 C 276.730469 156.171875 283.21875 159.109375 289.707031 162.046875 C 274.300781 180.753906 257.511719 197.464844 245.851562 205.917969 C 220.527344 193.542969 199.277344 176.222656 179.070312 156.199219 C 150.21875 195.175781 109.175781 230.738281 62.613281 258.308594 L 79.863281 240.566406 C 75.902344 228.214844 73.753906 215.082031 73.753906 201.445312 C 73.753906 130.515625 131.601562 72.660156 202.535156 72.660156 " fill-opacity="1" fill-rule="evenodd"/></g><g fill="#000000" fill-opacity="1"><g transform="translate(64.590049, 233.059572)"><g><path d="M -61.296875 -44.140625 L -49.84375 -44.78125 L -48.984375 -29.234375 L -1.765625 -31.84375 L -0.96875 -17.546875 L -48.1875 -14.9375 L -47.328125 0.59375 L -58.78125 1.234375 Z M -61.296875 -44.140625 "/></g></g></g><g fill="#4ecaab" fill-opacity="1"><g transform="translate(60.902595, 188.303896)"><g><path d="M 9.765625 -33.765625 L -14.9375 -28.1875 L -15.890625 -24.890625 L 5.421875 -18.734375 L 1.4375 -4.984375 L -55.015625 -21.296875 L -48.34375 -44.375 C -47.050781 -48.832031 -45.175781 -52.40625 -42.71875 -55.09375 C -40.257812 -57.78125 -37.453125 -59.507812 -34.296875 -60.28125 C -31.140625 -61.050781 -27.898438 -60.957031 -24.578125 -60 C -20.816406 -58.90625 -17.769531 -56.875 -15.4375 -53.90625 C -13.101562 -50.945312 -11.914062 -47.222656 -11.875 -42.734375 L 14.25 -49.296875 Z M -25.625 -27.703125 L -23.171875 -36.234375 C -22.441406 -38.753906 -22.507812 -40.820312 -23.375 -42.4375 C -24.25 -44.0625 -25.8125 -45.195312 -28.0625 -45.84375 C -30.207031 -46.46875 -32.078125 -46.328125 -33.671875 -45.421875 C -35.265625 -44.515625 -36.425781 -42.800781 -37.15625 -40.28125 L -39.609375 -31.75 Z M -25.625 -27.703125 "/></g></g></g><g fill="#4ecaab" fill-opacity="1"><g transform="translate(72.96101, 140.518177)"><g><path d="M 17.203125 -39.453125 L 3.84375 -22.046875 L 9.9375 -12.953125 L 0.8125 -1.0625 L -32.84375 -53.71875 L -22.75 -66.859375 L 36.796875 -47.9375 L 27.578125 -35.9375 Z M 6.1875 -43.265625 L -15.3125 -50.59375 L -2.625 -31.78125 Z M 6.1875 -43.265625 "/></g></g></g><g fill="#4ecaab" fill-opacity="1"><g transform="translate(109.889162, 95.859512)"><g><path d="M -19 -58.9375 L 15.734375 -11.53125 L 4.1875 -3.0625 L -30.546875 -50.46875 Z M -19 -58.9375 "/></g></g></g><g fill="#4ecaab" fill-opacity="1"><g transform="translate(127.836353, 81.439463)"><g><path d="M 13.421875 -17.953125 L 30.59375 -25.5 L 35.03125 -15.390625 L 4.75 -2.078125 L -18.875 -55.890625 L -5.765625 -61.65625 Z M 13.421875 -17.953125 "/></g></g></g><g fill="#4ecaab" fill-opacity="1"><g transform="translate(160.486356, 65.550581)"><g><path d="M 26.34375 -2.4375 C 22.082031 -1.945312 18.179688 -2.195312 14.640625 -3.1875 C 11.097656 -4.1875 8.15625 -5.925781 5.8125 -8.40625 C 3.46875 -10.894531 2.023438 -14.050781 1.484375 -17.875 L 16.609375 -19.625 C 17.085938 -17.476562 18.023438 -15.910156 19.421875 -14.921875 C 20.828125 -13.929688 22.554688 -13.554688 24.609375 -13.796875 C 26.722656 -14.046875 28.332031 -14.722656 29.4375 -15.828125 C 30.550781 -16.941406 31.007812 -18.359375 30.8125 -20.078125 C 30.644531 -21.515625 30.019531 -22.648438 28.9375 -23.484375 C 27.851562 -24.316406 26.566406 -24.957031 25.078125 -25.40625 C 23.597656 -25.851562 21.507812 -26.316406 18.8125 -26.796875 C 14.914062 -27.515625 11.707031 -28.316406 9.1875 -29.203125 C 6.664062 -30.085938 4.410156 -31.566406 2.421875 -33.640625 C 0.441406 -35.722656 -0.753906 -38.59375 -1.171875 -42.25 C -1.796875 -47.6875 -0.320312 -52.171875 3.25 -55.703125 C 6.832031 -59.234375 11.78125 -61.363281 18.09375 -62.09375 C 24.53125 -62.84375 29.894531 -61.90625 34.1875 -59.28125 C 38.488281 -56.65625 41.09375 -52.613281 42 -47.15625 L 26.609375 -45.375 C 26.296875 -47.25 25.4375 -48.65625 24.03125 -49.59375 C 22.625 -50.53125 20.925781 -50.882812 18.9375 -50.65625 C 17.21875 -50.457031 15.882812 -49.835938 14.9375 -48.796875 C 13.988281 -47.753906 13.613281 -46.375 13.8125 -44.65625 C 14.03125 -42.769531 15.082031 -41.398438 16.96875 -40.546875 C 18.863281 -39.703125 21.769531 -38.882812 25.6875 -38.09375 C 29.601562 -37.257812 32.804688 -36.398438 35.296875 -35.515625 C 37.796875 -34.628906 40.03125 -33.171875 42 -31.140625 C 43.976562 -29.117188 45.171875 -26.367188 45.578125 -22.890625 C 45.953125 -19.554688 45.453125 -16.429688 44.078125 -13.515625 C 42.703125 -10.597656 40.492188 -8.148438 37.453125 -6.171875 C 34.421875 -4.191406 30.71875 -2.945312 26.34375 -2.4375 Z M 26.34375 -2.4375 "/></g></g></g><g fill="#000000" fill-opacity="1"><g transform="translate(209.009766, 61.353794)"><g><path d="M 11.6875 2.265625 C 9.195312 1.929688 7.257812 0.925781 5.875 -0.75 C 4.5 -2.4375 3.960938 -4.359375 4.265625 -6.515625 C 4.554688 -8.722656 5.59375 -10.46875 7.375 -11.75 C 9.15625 -13.03125 11.289062 -13.503906 13.78125 -13.171875 C 16.21875 -12.835938 18.117188 -11.816406 19.484375 -10.109375 C 20.859375 -8.398438 21.398438 -6.441406 21.109375 -4.234375 C 20.804688 -2.078125 19.769531 -0.375 18 0.875 C 16.226562 2.132812 14.125 2.597656 11.6875 2.265625 Z M 11.6875 2.265625 "/></g></g></g><g fill="#000000" fill-opacity="1"><g transform="translate(231.921342, 64.371499)"><g><path d="M 36.234375 -50.21875 L 18.609375 5.84375 L 4.953125 1.5625 L 22.578125 -54.5 Z M 36.234375 -50.21875 "/></g></g></g><g fill="#000000" fill-opacity="1"><g transform="translate(253.431975, 67.410969)"><g><path d="M 26.875 19.125 C 22.320312 16.007812 18.867188 12.09375 16.515625 7.375 C 14.171875 2.65625 13.179688 -2.367188 13.546875 -7.703125 C 13.921875 -13.035156 15.734375 -18.070312 18.984375 -22.8125 C 22.234375 -27.550781 26.269531 -31.039062 31.09375 -33.28125 C 35.914062 -35.53125 40.945312 -36.410156 46.1875 -35.921875 C 51.4375 -35.441406 56.335938 -33.644531 60.890625 -30.53125 C 65.453125 -27.40625 68.910156 -23.476562 71.265625 -18.75 C 73.617188 -14.03125 74.59375 -9.03125 74.1875 -3.75 C 73.789062 1.519531 71.96875 6.523438 68.71875 11.265625 C 65.46875 16.003906 61.429688 19.515625 56.609375 21.796875 C 51.796875 24.085938 46.773438 24.992188 41.546875 24.515625 C 36.328125 24.046875 31.4375 22.25 26.875 19.125 Z M 34.25 8.359375 C 38.125 11.015625 42.101562 11.847656 46.1875 10.859375 C 50.28125 9.867188 53.78125 7.253906 56.6875 3.015625 C 59.625 -1.273438 60.804688 -5.488281 60.234375 -9.625 C 59.660156 -13.769531 57.4375 -17.171875 53.5625 -19.828125 C 49.65625 -22.503906 45.671875 -23.375 41.609375 -22.4375 C 37.546875 -21.5 34.03125 -18.863281 31.0625 -14.53125 C 28.125 -10.25 26.941406 -6.03125 27.515625 -1.875 C 28.097656 2.269531 30.34375 5.679688 34.25 8.359375 Z M 34.25 8.359375 "/></g></g></g><g fill="#00ffff" fill-opacity="1"><g transform="translate(83.64137, 316.878248)"><g><path d="M 7.515625 7.203125 C 6.265625 6.066406 5.332031 4.84375 4.71875 3.53125 C 4.113281 2.21875 3.878906 0.894531 4.015625 -0.4375 C 4.148438 -1.769531 4.707031 -3.015625 5.6875 -4.171875 L 10.109375 -0.109375 C 9.585938 0.585938 9.359375 1.269531 9.421875 1.9375 C 9.492188 2.601562 9.832031 3.210938 10.4375 3.765625 C 11.050781 4.328125 11.664062 4.628906 12.28125 4.671875 C 12.894531 4.722656 13.429688 4.5 13.890625 4 C 14.273438 3.570312 14.453125 3.09375 14.421875 2.5625 C 14.390625 2.03125 14.25 1.484375 14 0.921875 C 13.757812 0.359375 13.363281 -0.375 12.8125 -1.28125 C 12.019531 -2.632812 11.429688 -3.800781 11.046875 -4.78125 C 10.660156 -5.757812 10.523438 -6.8125 10.640625 -7.9375 C 10.753906 -9.0625 11.300781 -10.15625 12.28125 -11.21875 C 13.726562 -12.800781 15.4375 -13.515625 17.40625 -13.359375 C 19.375 -13.203125 21.28125 -12.28125 23.125 -10.59375 C 25 -8.863281 26.097656 -7.023438 26.421875 -5.078125 C 26.742188 -3.128906 26.210938 -1.320312 24.828125 0.34375 L 20.328125 -3.78125 C 20.804688 -4.351562 21.003906 -4.96875 20.921875 -5.625 C 20.835938 -6.28125 20.503906 -6.875 19.921875 -7.40625 C 19.421875 -7.863281 18.894531 -8.097656 18.34375 -8.109375 C 17.789062 -8.128906 17.285156 -7.894531 16.828125 -7.40625 C 16.316406 -6.84375 16.179688 -6.171875 16.421875 -5.390625 C 16.660156 -4.609375 17.164062 -3.539062 17.9375 -2.1875 C 18.6875 -0.800781 19.253906 0.375 19.640625 1.34375 C 20.023438 2.320312 20.164062 3.363281 20.0625 4.46875 C 19.96875 5.582031 19.453125 6.648438 18.515625 7.671875 C 17.628906 8.640625 16.578125 9.289062 15.359375 9.625 C 14.140625 9.96875 12.84375 9.941406 11.46875 9.546875 C 10.101562 9.160156 8.785156 8.378906 7.515625 7.203125 Z M 7.515625 7.203125 "/></g></g></g><g fill="#00ffff" fill-opacity="1"><g transform="translate(111.127784, 339.760718)"><g><path d="M 27.75 -10.609375 L 25.484375 -6.703125 L 20.1875 -9.78125 L 10.859375 6.296875 L 5.96875 3.46875 L 15.296875 -12.609375 L 10.015625 -15.671875 L 12.28125 -19.578125 Z M 27.75 -10.609375 "/></g></g></g><g fill="#00ffff" fill-opacity="1"><g transform="translate(142.287966, 356.139554)"><g><path d="M 12.359375 3.9375 C 10.285156 3.3125 8.519531 2.257812 7.0625 0.78125 C 5.613281 -0.695312 4.640625 -2.457031 4.140625 -4.5 C 3.648438 -6.550781 3.726562 -8.660156 4.375 -10.828125 C 5.03125 -12.992188 6.125 -14.78125 7.65625 -16.1875 C 9.1875 -17.601562 10.960938 -18.535156 12.984375 -18.984375 C 15.015625 -19.441406 17.066406 -19.359375 19.140625 -18.734375 C 21.222656 -18.109375 22.988281 -17.050781 24.4375 -15.5625 C 25.882812 -14.082031 26.847656 -12.332031 27.328125 -10.3125 C 27.816406 -8.289062 27.734375 -6.195312 27.078125 -4.03125 C 26.429688 -1.863281 25.34375 -0.0625 23.8125 1.375 C 22.28125 2.8125 20.507812 3.753906 18.5 4.203125 C 16.488281 4.648438 14.441406 4.5625 12.359375 3.9375 Z M 13.828125 -0.984375 C 15.597656 -0.453125 17.191406 -0.613281 18.609375 -1.46875 C 20.023438 -2.332031 21.019531 -3.734375 21.59375 -5.671875 C 22.1875 -7.628906 22.125 -9.347656 21.40625 -10.828125 C 20.695312 -12.316406 19.457031 -13.328125 17.6875 -13.859375 C 15.90625 -14.390625 14.304688 -14.234375 12.890625 -13.390625 C 11.484375 -12.546875 10.484375 -11.140625 9.890625 -9.171875 C 9.304688 -7.210938 9.367188 -5.488281 10.078125 -4 C 10.796875 -2.519531 12.046875 -1.515625 13.828125 -0.984375 Z M 13.828125 -0.984375 "/></g></g></g><g fill="#00ffff" fill-opacity="1"><g transform="translate(182.859388, 366.125172)"><g><path d="M 1.53125 -11.53125 C 1.613281 -13.8125 2.179688 -15.828125 3.234375 -17.578125 C 4.285156 -19.328125 5.710938 -20.671875 7.515625 -21.609375 C 9.316406 -22.546875 11.332031 -22.972656 13.5625 -22.890625 C 16.3125 -22.785156 18.632812 -21.972656 20.53125 -20.453125 C 22.4375 -18.929688 23.671875 -16.90625 24.234375 -14.375 L 18.046875 -14.609375 C 17.617188 -15.585938 16.988281 -16.34375 16.15625 -16.875 C 15.332031 -17.414062 14.382812 -17.707031 13.3125 -17.75 C 11.59375 -17.8125 10.171875 -17.257812 9.046875 -16.09375 C 7.921875 -14.9375 7.320312 -13.347656 7.25 -11.328125 C 7.175781 -9.316406 7.65625 -7.6875 8.6875 -6.4375 C 9.71875 -5.1875 11.09375 -4.53125 12.8125 -4.46875 C 13.882812 -4.425781 14.851562 -4.640625 15.71875 -5.109375 C 16.582031 -5.585938 17.265625 -6.300781 17.765625 -7.25 L 23.953125 -7.015625 C 23.203125 -4.535156 21.820312 -2.613281 19.8125 -1.25 C 17.8125 0.113281 15.4375 0.742188 12.6875 0.640625 C 10.457031 0.554688 8.476562 -0.015625 6.75 -1.078125 C 5.019531 -2.140625 3.695312 -3.578125 2.78125 -5.390625 C 1.863281 -7.210938 1.445312 -9.257812 1.53125 -11.53125 Z M 1.53125 -11.53125 "/></g></g></g><g fill="#00ffff" fill-opacity="1"><g transform="translate(223.738664, 365.597772)"><g><path d="M 15.109375 -3.15625 L 5.421875 -11.5625 L 7.515625 -1.578125 L 2 -0.421875 L -2.734375 -23.046875 L 2.78125 -24.203125 L 4.859375 -14.265625 L 10.3125 -25.78125 L 16.78125 -27.125 L 10.34375 -14.203125 L 21.859375 -4.578125 Z M 15.109375 -3.15625 "/></g></g></g><g fill="#00ffff" fill-opacity="1"><g transform="translate(260.52841, 355.715671)"><g/></g></g><g fill="#00ffff" fill-opacity="1"><g transform="translate(281.1815, 346.759454)"><g><path d="M 10.265625 -35 L 23.296875 -15.921875 L 18.640625 -12.734375 L 10.828125 -24.171875 L 14.390625 -9.828125 L 10.625 -7.265625 L -1.515625 -15.796875 L 6.328125 -4.328125 L 1.6875 -1.15625 L -11.34375 -20.234375 L -5.859375 -23.984375 L 8.515625 -14.4375 L 4.796875 -31.265625 Z M 10.265625 -35 "/></g></g></g><g fill="#00ffff" fill-opacity="1"><g transform="translate(317.863978, 318.640617)"><g><path d="M 7.546875 -15.125 L 1.953125 -8.578125 L 4.171875 -4.890625 L 0.34375 -0.40625 L -11.8125 -21.765625 L -7.578125 -26.71875 L 15.421875 -18.078125 L 11.5625 -13.546875 Z M 3.328125 -16.859375 L -4.984375 -20.1875 L -0.375 -12.53125 Z M 3.328125 -16.859375 "/></g></g></g><g fill="#00ffff" fill-opacity="1"><g transform="translate(342.239419, 286.954223)"><g><path d="M 6.265625 -12.328125 L -3.6875 -11.984375 L -4.296875 -10.796875 L 3.46875 -6.84375 L 0.921875 -1.828125 L -19.671875 -12.296875 L -15.390625 -20.703125 C -14.566406 -22.328125 -13.582031 -23.566406 -12.4375 -24.421875 C -11.289062 -25.285156 -10.078125 -25.75 -8.796875 -25.8125 C -7.523438 -25.875 -6.28125 -25.597656 -5.0625 -24.984375 C -3.695312 -24.285156 -2.671875 -23.273438 -1.984375 -21.953125 C -1.296875 -20.628906 -1.113281 -19.101562 -1.4375 -17.375 L 9.140625 -18 Z M -7.859375 -12.59375 L -6.28125 -15.703125 C -5.8125 -16.617188 -5.679688 -17.421875 -5.890625 -18.109375 C -6.109375 -18.796875 -6.632812 -19.351562 -7.46875 -19.78125 C -8.238281 -20.175781 -8.96875 -20.257812 -9.65625 -20.03125 C -10.34375 -19.800781 -10.921875 -19.226562 -11.390625 -18.3125 L -12.96875 -15.203125 Z M -7.859375 -12.59375 "/></g></g></g><g fill="#00ffff" fill-opacity="1"><g transform="translate(357.507168, 253.083392)"><g><path d="M 3.640625 -15 L -8.109375 -9.859375 L 1.8125 -7.453125 L 0.484375 -1.984375 L -21.96875 -7.4375 L -20.640625 -12.90625 L -10.796875 -10.515625 L -18.828125 -20.390625 L -17.265625 -26.8125 L -8.375 -15.4375 L 5.265625 -21.703125 Z M 3.640625 -15 "/></g></g></g><g fill="#00ffff" fill-opacity="1"><g transform="translate(364.633766, 215.266138)"><g><path d="M -18.453125 -8.015625 L -13.78125 -7.921875 L -13.640625 -15.453125 L -9.296875 -15.375 L -9.4375 -7.84375 L -4.375 -7.75 L -4.21875 -16.28125 L 0.296875 -16.203125 L 0.03125 -2.046875 L -23.078125 -2.46875 L -22.8125 -16.625 L -18.296875 -16.546875 Z M -18.453125 -8.015625 "/></g></g></g><g fill="#00ffff" fill-opacity="1"><g transform="translate(363.712546, 182.026251)"><g><path d="M -26.21875 -13.953125 L -21.78125 -14.8125 L -20.625 -8.796875 L -2.375 -12.3125 L -1.3125 -6.78125 L -19.5625 -3.265625 L -18.40625 2.734375 L -22.84375 3.59375 Z M -26.21875 -13.953125 "/></g></g></g><g fill="#ff00ff" fill-opacity="1"><g transform="translate(84.719964, 316.277545)"><g><path d="M 7.515625 7.203125 C 6.265625 6.066406 5.332031 4.84375 4.71875 3.53125 C 4.113281 2.21875 3.878906 0.894531 4.015625 -0.4375 C 4.148438 -1.769531 4.707031 -3.015625 5.6875 -4.171875 L 10.109375 -0.109375 C 9.585938 0.585938 9.359375 1.269531 9.421875 1.9375 C 9.492188 2.601562 9.832031 3.210938 10.4375 3.765625 C 11.050781 4.328125 11.664062 4.628906 12.28125 4.671875 C 12.894531 4.722656 13.429688 4.5 13.890625 4 C 14.273438 3.570312 14.453125 3.09375 14.421875 2.5625 C 14.390625 2.03125 14.25 1.484375 14 0.921875 C 13.757812 0.359375 13.363281 -0.375 12.8125 -1.28125 C 12.019531 -2.632812 11.429688 -3.800781 11.046875 -4.78125 C 10.660156 -5.757812 10.523438 -6.8125 10.640625 -7.9375 C 10.753906 -9.0625 11.300781 -10.15625 12.28125 -11.21875 C 13.726562 -12.800781 15.4375 -13.515625 17.40625 -13.359375 C 19.375 -13.203125 21.28125 -12.28125 23.125 -10.59375 C 25 -8.863281 26.097656 -7.023438 26.421875 -5.078125 C 26.742188 -3.128906 26.210938 -1.320312 24.828125 0.34375 L 20.328125 -3.78125 C 20.804688 -4.351562 21.003906 -4.96875 20.921875 -5.625 C 20.835938 -6.28125 20.503906 -6.875 19.921875 -7.40625 C 19.421875 -7.863281 18.894531 -8.097656 18.34375 -8.109375 C 17.789062 -8.128906 17.285156 -7.894531 16.828125 -7.40625 C 16.316406 -6.84375 16.179688 -6.171875 16.421875 -5.390625 C 16.660156 -4.609375 17.164062 -3.539062 17.9375 -2.1875 C 18.6875 -0.800781 19.253906 0.375 19.640625 1.34375 C 20.023438 2.320312 20.164062 3.363281 20.0625 4.46875 C 19.96875 5.582031 19.453125 6.648438 18.515625 7.671875 C 17.628906 8.640625 16.578125 9.289062 15.359375 9.625 C 14.140625 9.96875 12.84375 9.941406 11.46875 9.546875 C 10.101562 9.160156 8.785156 8.378906 7.515625 7.203125 Z M 7.515625 7.203125 "/></g></g></g><g fill="#ff00ff" fill-opacity="1"><g transform="translate(112.206363, 339.160015)"><g><path d="M 27.75 -10.609375 L 25.484375 -6.703125 L 20.1875 -9.78125 L 10.859375 6.296875 L 5.96875 3.46875 L 15.296875 -12.609375 L 10.015625 -15.671875 L 12.28125 -19.578125 Z M 27.75 -10.609375 "/></g></g></g><g fill="#ff00ff" fill-opacity="1"><g transform="translate(143.366546, 355.538851)"><g><path d="M 12.359375 3.9375 C 10.285156 3.3125 8.519531 2.257812 7.0625 0.78125 C 5.613281 -0.695312 4.640625 -2.457031 4.140625 -4.5 C 3.648438 -6.550781 3.726562 -8.660156 4.375 -10.828125 C 5.03125 -12.992188 6.125 -14.78125 7.65625 -16.1875 C 9.1875 -17.601562 10.960938 -18.535156 12.984375 -18.984375 C 15.015625 -19.441406 17.066406 -19.359375 19.140625 -18.734375 C 21.222656 -18.109375 22.988281 -17.050781 24.4375 -15.5625 C 25.882812 -14.082031 26.847656 -12.332031 27.328125 -10.3125 C 27.816406 -8.289062 27.734375 -6.195312 27.078125 -4.03125 C 26.429688 -1.863281 25.34375 -0.0625 23.8125 1.375 C 22.28125 2.8125 20.507812 3.753906 18.5 4.203125 C 16.488281 4.648438 14.441406 4.5625 12.359375 3.9375 Z M 13.828125 -0.984375 C 15.597656 -0.453125 17.191406 -0.613281 18.609375 -1.46875 C 20.023438 -2.332031 21.019531 -3.734375 21.59375 -5.671875 C 22.1875 -7.628906 22.125 -9.347656 21.40625 -10.828125 C 20.695312 -12.316406 19.457031 -13.328125 17.6875 -13.859375 C 15.90625 -14.390625 14.304688 -14.234375 12.890625 -13.390625 C 11.484375 -12.546875 10.484375 -11.140625 9.890625 -9.171875 C 9.304688 -7.210938 9.367188 -5.488281 10.078125 -4 C 10.796875 -2.519531 12.046875 -1.515625 13.828125 -0.984375 Z M 13.828125 -0.984375 "/></g></g></g><g fill="#ff00ff" fill-opacity="1"><g transform="translate(183.937967, 365.524469)"><g><path d="M 1.53125 -11.53125 C 1.613281 -13.8125 2.179688 -15.828125 3.234375 -17.578125 C 4.285156 -19.328125 5.710938 -20.671875 7.515625 -21.609375 C 9.316406 -22.546875 11.332031 -22.972656 13.5625 -22.890625 C 16.3125 -22.785156 18.632812 -21.972656 20.53125 -20.453125 C 22.4375 -18.929688 23.671875 -16.90625 24.234375 -14.375 L 18.046875 -14.609375 C 17.617188 -15.585938 16.988281 -16.34375 16.15625 -16.875 C 15.332031 -17.414062 14.382812 -17.707031 13.3125 -17.75 C 11.59375 -17.8125 10.171875 -17.257812 9.046875 -16.09375 C 7.921875 -14.9375 7.320312 -13.347656 7.25 -11.328125 C 7.175781 -9.316406 7.65625 -7.6875 8.6875 -6.4375 C 9.71875 -5.1875 11.09375 -4.53125 12.8125 -4.46875 C 13.882812 -4.425781 14.851562 -4.640625 15.71875 -5.109375 C 16.582031 -5.585938 17.265625 -6.300781 17.765625 -7.25 L 23.953125 -7.015625 C 23.203125 -4.535156 21.820312 -2.613281 19.8125 -1.25 C 17.8125 0.113281 15.4375 0.742188 12.6875 0.640625 C 10.457031 0.554688 8.476562 -0.015625 6.75 -1.078125 C 5.019531 -2.140625 3.695312 -3.578125 2.78125 -5.390625 C 1.863281 -7.210938 1.445312 -9.257812 1.53125 -11.53125 Z M 1.53125 -11.53125 "/></g></g></g><g fill="#ff00ff" fill-opacity="1"><g transform="translate(224.817243, 364.997069)"><g><path d="M 15.109375 -3.15625 L 5.421875 -11.5625 L 7.515625 -1.578125 L 2 -0.421875 L -2.734375 -23.046875 L 2.78125 -24.203125 L 4.859375 -14.265625 L 10.3125 -25.78125 L 16.78125 -27.125 L 10.34375 -14.203125 L 21.859375 -4.578125 Z M 15.109375 -3.15625 "/></g></g></g><g fill="#ff00ff" fill-opacity="1"><g transform="translate(261.607004, 355.114997)"><g/></g></g><g fill="#ff00ff" fill-opacity="1"><g transform="translate(282.260065, 346.158751)"><g><path d="M 10.265625 -35 L 23.296875 -15.921875 L 18.640625 -12.734375 L 10.828125 -24.171875 L 14.390625 -9.828125 L 10.625 -7.265625 L -1.515625 -15.796875 L 6.328125 -4.328125 L 1.6875 -1.15625 L -11.34375 -20.234375 L -5.859375 -23.984375 L 8.515625 -14.4375 L 4.796875 -31.265625 Z M 10.265625 -35 "/></g></g></g><g fill="#ff00ff" fill-opacity="1"><g transform="translate(318.942574, 318.039914)"><g><path d="M 7.546875 -15.125 L 1.953125 -8.578125 L 4.171875 -4.890625 L 0.34375 -0.40625 L -11.8125 -21.765625 L -7.578125 -26.71875 L 15.421875 -18.078125 L 11.5625 -13.546875 Z M 3.328125 -16.859375 L -4.984375 -20.1875 L -0.375 -12.53125 Z M 3.328125 -16.859375 "/></g></g></g><g fill="#ff00ff" fill-opacity="1"><g transform="translate(343.318012, 286.35352)"><g><path d="M 6.265625 -12.328125 L -3.6875 -11.984375 L -4.296875 -10.796875 L 3.46875 -6.84375 L 0.921875 -1.828125 L -19.671875 -12.296875 L -15.390625 -20.703125 C -14.566406 -22.328125 -13.582031 -23.566406 -12.4375 -24.421875 C -11.289062 -25.285156 -10.078125 -25.75 -8.796875 -25.8125 C -7.523438 -25.875 -6.28125 -25.597656 -5.0625 -24.984375 C -3.695312 -24.285156 -2.671875 -23.273438 -1.984375 -21.953125 C -1.296875 -20.628906 -1.113281 -19.101562 -1.4375 -17.375 L 9.140625 -18 Z M -7.859375 -12.59375 L -6.28125 -15.703125 C -5.8125 -16.617188 -5.679688 -17.421875 -5.890625 -18.109375 C -6.109375 -18.796875 -6.632812 -19.351562 -7.46875 -19.78125 C -8.238281 -20.175781 -8.96875 -20.257812 -9.65625 -20.03125 C -10.34375 -19.800781 -10.921875 -19.226562 -11.390625 -18.3125 L -12.96875 -15.203125 Z M -7.859375 -12.59375 "/></g></g></g><g fill="#ff00ff" fill-opacity="1"><g transform="translate(358.585761, 252.482689)"><g><path d="M 3.640625 -15 L -8.109375 -9.859375 L 1.8125 -7.453125 L 0.484375 -1.984375 L -21.96875 -7.4375 L -20.640625 -12.90625 L -10.796875 -10.515625 L -18.828125 -20.390625 L -17.265625 -26.8125 L -8.375 -15.4375 L 5.265625 -21.703125 Z M 3.640625 -15 "/></g></g></g><g fill="#ff00ff" fill-opacity="1"><g transform="translate(365.71236, 214.665435)"><g><path d="M -18.453125 -8.015625 L -13.78125 -7.921875 L -13.640625 -15.453125 L -9.296875 -15.375 L -9.4375 -7.84375 L -4.375 -7.75 L -4.21875 -16.28125 L 0.296875 -16.203125 L 0.03125 -2.046875 L -23.078125 -2.46875 L -22.8125 -16.625 L -18.296875 -16.546875 Z M -18.453125 -8.015625 "/></g></g></g><g fill="#ff00ff" fill-opacity="1"><g transform="translate(364.79111, 181.425562)"><g><path d="M -26.21875 -13.953125 L -21.78125 -14.8125 L -20.625 -8.796875 L -2.375 -12.3125 L -1.3125 -6.78125 L -19.5625 -3.265625 L -18.40625 2.734375 L -22.84375 3.59375 Z M -26.21875 -13.953125 "/></g></g></g><g fill="#000000" fill-opacity="1"><g transform="translate(84.180674, 316.577896)"><g><path d="M 7.515625 7.203125 C 6.265625 6.066406 5.332031 4.84375 4.71875 3.53125 C 4.113281 2.21875 3.878906 0.894531 4.015625 -0.4375 C 4.148438 -1.769531 4.707031 -3.015625 5.6875 -4.171875 L 10.109375 -0.109375 C 9.585938 0.585938 9.359375 1.269531 9.421875 1.9375 C 9.492188 2.601562 9.832031 3.210938 10.4375 3.765625 C 11.050781 4.328125 11.664062 4.628906 12.28125 4.671875 C 12.894531 4.722656 13.429688 4.5 13.890625 4 C 14.273438 3.570312 14.453125 3.09375 14.421875 2.5625 C 14.390625 2.03125 14.25 1.484375 14 0.921875 C 13.757812 0.359375 13.363281 -0.375 12.8125 -1.28125 C 12.019531 -2.632812 11.429688 -3.800781 11.046875 -4.78125 C 10.660156 -5.757812 10.523438 -6.8125 10.640625 -7.9375 C 10.753906 -9.0625 11.300781 -10.15625 12.28125 -11.21875 C 13.726562 -12.800781 15.4375 -13.515625 17.40625 -13.359375 C 19.375 -13.203125 21.28125 -12.28125 23.125 -10.59375 C 25 -8.863281 26.097656 -7.023438 26.421875 -5.078125 C 26.742188 -3.128906 26.210938 -1.320312 24.828125 0.34375 L 20.328125 -3.78125 C 20.804688 -4.351562 21.003906 -4.96875 20.921875 -5.625 C 20.835938 -6.28125 20.503906 -6.875 19.921875 -7.40625 C 19.421875 -7.863281 18.894531 -8.097656 18.34375 -8.109375 C 17.789062 -8.128906 17.285156 -7.894531 16.828125 -7.40625 C 16.316406 -6.84375 16.179688 -6.171875 16.421875 -5.390625 C 16.660156 -4.609375 17.164062 -3.539062 17.9375 -2.1875 C 18.6875 -0.800781 19.253906 0.375 19.640625 1.34375 C 20.023438 2.320312 20.164062 3.363281 20.0625 4.46875 C 19.96875 5.582031 19.453125 6.648438 18.515625 7.671875 C 17.628906 8.640625 16.578125 9.289062 15.359375 9.625 C 14.140625 9.96875 12.84375 9.941406 11.46875 9.546875 C 10.101562 9.160156 8.785156 8.378906 7.515625 7.203125 Z M 7.515625 7.203125 "/></g></g></g><g fill="#000000" fill-opacity="1"><g transform="translate(111.667081, 339.460397)"><g><path d="M 27.75 -10.609375 L 25.484375 -6.703125 L 20.1875 -9.78125 L 10.859375 6.296875 L 5.96875 3.46875 L 15.296875 -12.609375 L 10.015625 -15.671875 L 12.28125 -19.578125 Z M 27.75 -10.609375 "/></g></g></g><g fill="#000000" fill-opacity="1"><g transform="translate(142.827263, 355.839204)"><g><path d="M 12.359375 3.9375 C 10.285156 3.3125 8.519531 2.257812 7.0625 0.78125 C 5.613281 -0.695312 4.640625 -2.457031 4.140625 -4.5 C 3.648438 -6.550781 3.726562 -8.660156 4.375 -10.828125 C 5.03125 -12.992188 6.125 -14.78125 7.65625 -16.1875 C 9.1875 -17.601562 10.960938 -18.535156 12.984375 -18.984375 C 15.015625 -19.441406 17.066406 -19.359375 19.140625 -18.734375 C 21.222656 -18.109375 22.988281 -17.050781 24.4375 -15.5625 C 25.882812 -14.082031 26.847656 -12.332031 27.328125 -10.3125 C 27.816406 -8.289062 27.734375 -6.195312 27.078125 -4.03125 C 26.429688 -1.863281 25.34375 -0.0625 23.8125 1.375 C 22.28125 2.8125 20.507812 3.753906 18.5 4.203125 C 16.488281 4.648438 14.441406 4.5625 12.359375 3.9375 Z M 13.828125 -0.984375 C 15.597656 -0.453125 17.191406 -0.613281 18.609375 -1.46875 C 20.023438 -2.332031 21.019531 -3.734375 21.59375 -5.671875 C 22.1875 -7.628906 22.125 -9.347656 21.40625 -10.828125 C 20.695312 -12.316406 19.457031 -13.328125 17.6875 -13.859375 C 15.90625 -14.390625 14.304688 -14.234375 12.890625 -13.390625 C 11.484375 -12.546875 10.484375 -11.140625 9.890625 -9.171875 C 9.304688 -7.210938 9.367188 -5.488281 10.078125 -4 C 10.796875 -2.519531 12.046875 -1.515625 13.828125 -0.984375 Z M 13.828125 -0.984375 "/></g></g></g><g fill="#000000" fill-opacity="1"><g transform="translate(183.398684, 365.82485)"><g><path d="M 1.53125 -11.53125 C 1.613281 -13.8125 2.179688 -15.828125 3.234375 -17.578125 C 4.285156 -19.328125 5.710938 -20.671875 7.515625 -21.609375 C 9.316406 -22.546875 11.332031 -22.972656 13.5625 -22.890625 C 16.3125 -22.785156 18.632812 -21.972656 20.53125 -20.453125 C 22.4375 -18.929688 23.671875 -16.90625 24.234375 -14.375 L 18.046875 -14.609375 C 17.617188 -15.585938 16.988281 -16.34375 16.15625 -16.875 C 15.332031 -17.414062 14.382812 -17.707031 13.3125 -17.75 C 11.59375 -17.8125 10.171875 -17.257812 9.046875 -16.09375 C 7.921875 -14.9375 7.320312 -13.347656 7.25 -11.328125 C 7.175781 -9.316406 7.65625 -7.6875 8.6875 -6.4375 C 9.71875 -5.1875 11.09375 -4.53125 12.8125 -4.46875 C 13.882812 -4.425781 14.851562 -4.640625 15.71875 -5.109375 C 16.582031 -5.585938 17.265625 -6.300781 17.765625 -7.25 L 23.953125 -7.015625 C 23.203125 -4.535156 21.820312 -2.613281 19.8125 -1.25 C 17.8125 0.113281 15.4375 0.742188 12.6875 0.640625 C 10.457031 0.554688 8.476562 -0.015625 6.75 -1.078125 C 5.019531 -2.140625 3.695312 -3.578125 2.78125 -5.390625 C 1.863281 -7.210938 1.445312 -9.257812 1.53125 -11.53125 Z M 1.53125 -11.53125 "/></g></g></g><g fill="#000000" fill-opacity="1"><g transform="translate(224.277963, 365.297391)"><g><path d="M 15.109375 -3.15625 L 5.421875 -11.5625 L 7.515625 -1.578125 L 2 -0.421875 L -2.734375 -23.046875 L 2.78125 -24.203125 L 4.859375 -14.265625 L 10.3125 -25.78125 L 16.78125 -27.125 L 10.34375 -14.203125 L 21.859375 -4.578125 Z M 15.109375 -3.15625 "/></g></g></g><g fill="#000000" fill-opacity="1"><g transform="translate(261.067707, 355.415321)"><g/></g></g><g fill="#000000" fill-opacity="1"><g transform="translate(281.720768, 346.459104)"><g><path d="M 10.265625 -35 L 23.296875 -15.921875 L 18.640625 -12.734375 L 10.828125 -24.171875 L 14.390625 -9.828125 L 10.625 -7.265625 L -1.515625 -15.796875 L 6.328125 -4.328125 L 1.6875 -1.15625 L -11.34375 -20.234375 L -5.859375 -23.984375 L 8.515625 -14.4375 L 4.796875 -31.265625 Z M 10.265625 -35 "/></g></g></g><g fill="#000000" fill-opacity="1"><g transform="translate(318.403275, 318.340235)"><g><path d="M 7.546875 -15.125 L 1.953125 -8.578125 L 4.171875 -4.890625 L 0.34375 -0.40625 L -11.8125 -21.765625 L -7.578125 -26.71875 L 15.421875 -18.078125 L 11.5625 -13.546875 Z M 3.328125 -16.859375 L -4.984375 -20.1875 L -0.375 -12.53125 Z M 3.328125 -16.859375 "/></g></g></g><g fill="#000000" fill-opacity="1"><g transform="translate(342.778716, 286.653871)"><g><path d="M 6.265625 -12.328125 L -3.6875 -11.984375 L -4.296875 -10.796875 L 3.46875 -6.84375 L 0.921875 -1.828125 L -19.671875 -12.296875 L -15.390625 -20.703125 C -14.566406 -22.328125 -13.582031 -23.566406 -12.4375 -24.421875 C -11.289062 -25.285156 -10.078125 -25.75 -8.796875 -25.8125 C -7.523438 -25.875 -6.28125 -25.597656 -5.0625 -24.984375 C -3.695312 -24.285156 -2.671875 -23.273438 -1.984375 -21.953125 C -1.296875 -20.628906 -1.113281 -19.101562 -1.4375 -17.375 L 9.140625 -18 Z M -7.859375 -12.59375 L -6.28125 -15.703125 C -5.8125 -16.617188 -5.679688 -17.421875 -5.890625 -18.109375 C -6.109375 -18.796875 -6.632812 -19.351562 -7.46875 -19.78125 C -8.238281 -20.175781 -8.96875 -20.257812 -9.65625 -20.03125 C -10.34375 -19.800781 -10.921875 -19.226562 -11.390625 -18.3125 L -12.96875 -15.203125 Z M -7.859375 -12.59375 "/></g></g></g><g fill="#000000" fill-opacity="1"><g transform="translate(358.046464, 252.783041)"><g><path d="M 3.640625 -15 L -8.109375 -9.859375 L 1.8125 -7.453125 L 0.484375 -1.984375 L -21.96875 -7.4375 L -20.640625 -12.90625 L -10.796875 -10.515625 L -18.828125 -20.390625 L -17.265625 -26.8125 L -8.375 -15.4375 L 5.265625 -21.703125 Z M 3.640625 -15 "/></g></g></g><g fill="#000000" fill-opacity="1"><g transform="translate(365.173063, 214.965771)"><g><path d="M -18.453125 -8.015625 L -13.78125 -7.921875 L -13.640625 -15.453125 L -9.296875 -15.375 L -9.4375 -7.84375 L -4.375 -7.75 L -4.21875 -16.28125 L 0.296875 -16.203125 L 0.03125 -2.046875 L -23.078125 -2.46875 L -22.8125 -16.625 L -18.296875 -16.546875 Z M -18.453125 -8.015625 "/></g></g></g><g fill="#000000" fill-opacity="1"><g transform="translate(364.251813, 181.725898)"><g><path d="M -26.21875 -13.953125 L -21.78125 -14.8125 L -20.625 -8.796875 L -2.375 -12.3125 L -1.3125 -6.78125 L -19.5625 -3.265625 L -18.40625 2.734375 L -22.84375 3.59375 Z M -26.21875 -13.953125 "/></g></g></g></svg>